<svg xmlns="http://www.w3.org/2000/svg" width="685.224" height="979.968" viewBox="0 0 685.224 979.968">
  <defs>
    <style>
      .cls-1 {
        fill-rule: evenodd;
      }
    </style>
  </defs>
  <path id="Color_Fill_1" data-name="Color Fill 1" class="cls-1" d="M562.866,260.246c165,0.434,330.007-1.1,496.594,2.353,14.86,7.233,24.56,15.854,31.42,34.052,2.49,36.707.51,73.414,0.85,111.642,1.85,24.521-7.21,59.908-17.49,76.167-7.32,14.6-17.18,23.559-27.71,34.983-30.19,32.531-63.231,62.216-95.392,95.058-12.7-10.257-22.328-21.171-34.16-32.617-10.747-10.993-21.782-21.7-32.117-33.8C909.6,524,933.7,499.272,958.412,474.093c11.023-13.211,24.339-24.129,34.434-40.592,6.091-24.234,3.326-48.468,4.09-73.771-0.356-1.069.891-2.138-2.138-3.207-163.578,0-327.156,0-491.723,1.069-0.289,17.819-.3,35.638,1.166,53.992-1.268,18.156,6.18,29.784,13.989,36.617,53.345,57.846,111.032,111.349,165.654,168.986C775.1,707.011,864.606,798.547,956.033,889.23c33.691,33.664,67.637,67.07,100.617,102.522,6.38,7.873,13.59,14.918,17.56,24.888,13.64,20.98,19.6,55.46,17.88,82.93,0,26.38,0,52.75.24,80.45-1.1,10.39.55,26.96-4.64,33.92-11.55,12.33-19.19,29.03-49.06,25.69-184.245,0-368.493,0-553.811.03-11.047.38-22.1-2.18-34.22-.53-23.2-2.57-29.418-14.48-39.11-27.58-5.406-17.83-3.019-37.05-3.846-56.38,1.248-32.79-2.089-65.58,3-99.25,13.449-55.12,37.942-67.083,63.785-96.108,23.573-25.963,49.34-49.733,74.73-75.322,22.493,21.342,42.8,44.872,66.8,67.17-24.419,25.116-49.916,49.16-74.314,75.36-11.91,12.68-24.483,24.7-35.559,39.41-2.921,24.59-3.267,49.18-3.082,74.84-1.248,1.07,2.316,2.14,2.138,3.21,163.578,0,327.156,0,491.341-1.07,1.648-19.96-.52-39.92-1.093-60.65,0.327-22.28-12.549-25.82-20.374-38.24C833.975,900.1,689.766,758.846,547.069,615.015c-20.017-22.036-41.694-42.412-63.026-64.2-15.935-15.427-31.075-31.649-46.547-48.582-10.77-13.437-17.666-26.108-25.969-53.763-6.346-35.282-2.544-70.563-3.675-107.021,0.033-16.875-.731-35.585,3.432-52.046,6.808-11.011,15.414-20.224,28.632-26.556C480.9,260.057,521.883,262.2,562.866,260.246Z" transform="translate(-407.656 -260.062)"/>
</svg>
